<svg id="a8e59428-9435-4ccb-8e22-362d1f6e2557" data-name="Schriftzug" xmlns="http://www.w3.org/2000/svg" viewBox="0 0 524.67 110.42"><title>Logo_Web</title><g id="c41c0e68-286d-4a72-8688-ac1fcf59f24c" data-name="Dark_NoMargin"><g id="5d96a6eb-5db5-43df-93b5-14d2e8bbc0d8" data-name="CodeEd"><path d="M27.65,103.41A50,50,0,0,1,8.07,84.83,51.09,51.09,0,0,1,.94,58,51.11,51.11,0,0,1,8.07,31.12,50,50,0,0,1,27.65,12.54a58.23,58.23,0,0,1,28-6.69,58.83,58.83,0,0,1,23.69,4.61A47.44,47.44,0,0,1,97.13,23.7l-15,13.83Q71.94,25.73,56.81,25.72a33.68,33.68,0,0,0-16.7,4.1A29.18,29.18,0,0,0,28.66,41.27,33.65,33.65,0,0,0,24.55,58a33.61,33.61,0,0,0,4.11,16.7A29.12,29.12,0,0,0,40.11,86.13a33.68,33.68,0,0,0,16.7,4.1q15.12,0,25.34-12l15,13.82a46.61,46.61,0,0,1-17.86,13.4,59.27,59.27,0,0,1-23.76,4.6A57.92,57.92,0,0,1,27.65,103.41Z" style="fill:#fcfbf9"/><path d="M117.65,104.42a38,38,0,0,1-15.19-14.19A39.07,39.07,0,0,1,97,69.64a39.07,39.07,0,0,1,5.48-20.59,38,38,0,0,1,15.19-14.19,46.55,46.55,0,0,1,22-5.11,46.15,46.15,0,0,1,21.89,5.11,38.16,38.16,0,0,1,15.12,14.19,39.15,39.15,0,0,1,5.47,20.59,39.15,39.15,0,0,1-5.47,20.59,38.16,38.16,0,0,1-15.12,14.19,46.15,46.15,0,0,1-21.89,5.11A46.55,46.55,0,0,1,117.65,104.42Zm36.14-19.16q5.55-5.82,5.55-15.62T153.79,54a18.69,18.69,0,0,0-14.18-5.84A19,19,0,0,0,125.35,54q-5.61,5.82-5.61,15.62t5.61,15.62a19,19,0,0,0,14.26,5.84A18.69,18.69,0,0,0,153.79,85.26Z" style="fill:#fcfbf9"/><path d="M270.22,1.53V108.38H248.76V99.45q-8.35,10.08-24.19,10.08a40.15,40.15,0,0,1-19.8-4.9,35,35,0,0,1-13.9-14,42.54,42.54,0,0,1-5-21,42.54,42.54,0,0,1,5-21,35,35,0,0,1,13.9-14,40.25,40.25,0,0,1,19.8-4.9q14.82,0,23.18,9.36V1.53ZM242.57,85.26q5.61-5.82,5.61-15.62T242.57,54a20.15,20.15,0,0,0-28.37,0q-5.61,5.82-5.62,15.62t5.62,15.62a20.15,20.15,0,0,0,28.37,0Z" style="fill:#fcfbf9"/><path d="M360.65,76H302a18.19,18.19,0,0,0,7.49,11.37q5.89,4.19,14.68,4.18a29.72,29.72,0,0,0,10.73-1.8A26,26,0,0,0,343.65,84l12,13q-11,12.52-32,12.53a50.69,50.69,0,0,1-23.19-5.11A37.49,37.49,0,0,1,284.9,90.23a39.06,39.06,0,0,1-5.47-20.59,39.61,39.61,0,0,1,5.4-20.52,37.88,37.88,0,0,1,14.83-14.26,45.92,45.92,0,0,1,41.69-.21,35.68,35.68,0,0,1,14.47,14,41.9,41.9,0,0,1,5.26,21.24C361.08,70.22,360.93,72.23,360.65,76ZM308.09,51.06a18.4,18.4,0,0,0-6.34,11.81h38.16a18.58,18.58,0,0,0-6.34-11.73,18.92,18.92,0,0,0-12.67-4.4A19.32,19.32,0,0,0,308.09,51.06Z" style="fill:#fcfbf9"/><g id="3c57ba6d-8858-4fd3-bb30-396cb10f771d" data-name="Ed"><path d="M523.63,1.53V108.38H502.18V99.45q-8.35,10.08-24.2,10.08a40.2,40.2,0,0,1-19.8-4.9,35,35,0,0,1-13.89-14,42.54,42.54,0,0,1-5-21,42.54,42.54,0,0,1,5-21,35,35,0,0,1,13.89-14,40.31,40.31,0,0,1,19.8-4.9q14.83,0,23.19,9.36V1.53ZM496,85.26q5.63-5.82,5.62-15.62T496,54a20.13,20.13,0,0,0-28.36,0Q462,59.84,462,69.64t5.62,15.62a20.13,20.13,0,0,0,28.36,0Z" style="fill:#ff4d4d"/><g id="8b43c08f-8261-4c1a-b9ef-2de34b523ae6" data-name="E"><line x1="373.74" y1="98.37" x2="431.85" y2="98.37" style="fill:#ff4d4d;stroke:#ff4d4d;stroke-linecap:round;stroke-miterlimit:10;stroke-width:22px"/><line x1="373.74" y1="54.97" x2="423.61" y2="54.97" style="fill:#ff4d4d;stroke:#ff4d4d;stroke-linecap:round;stroke-miterlimit:10;stroke-width:22px"/><line x1="373.74" y1="11.53" x2="431.85" y2="11.53" style="fill:#ff4d4d;stroke:#ff4d4d;stroke-linecap:round;stroke-miterlimit:10;stroke-width:22px"/></g></g></g></g></svg>