<svg id="e19238cd-e034-4e34-af5d-847222c63cdd" data-name="Schriftzug" xmlns="http://www.w3.org/2000/svg" viewBox="0 0 578.67 163.05"><defs><style>.ebabf4ae-d1ee-423c-a1db-dffe7f6af512{fill:#40414c;}.\35 413bbb0-eec6-4289-b722-89e2734d395b,.e8ffcf43-10ed-4f8b-8b18-b90f85a447e8{fill:#ff4d4d;}.e8ffcf43-10ed-4f8b-8b18-b90f85a447e8{stroke:#ff4d4d;stroke-linecap:round;stroke-miterlimit:10;stroke-width:22px;}</style></defs><title>Logo_Web</title><g id="52e90616-0576-4483-9966-9c00628569ac" data-name="Light"><g id="594da3a0-912d-4871-a3d4-4ef012a5ccff" data-name="CodeEd"><path class="ebabf4ae-d1ee-423c-a1db-dffe7f6af512" d="M51.52,129.4a50,50,0,0,1-19.58-18.58A51.2,51.2,0,0,1,24.81,84a51.19,51.19,0,0,1,7.13-26.85A50,50,0,0,1,51.52,38.53a58.23,58.23,0,0,1,28-6.69,58.82,58.82,0,0,1,23.69,4.6A47.57,47.57,0,0,1,121,49.69L106,63.52Q95.8,51.72,80.68,51.71A33.68,33.68,0,0,0,64,55.81,29.18,29.18,0,0,0,52.53,67.26,33.63,33.63,0,0,0,48.43,84a33.62,33.62,0,0,0,4.1,16.71A29.25,29.25,0,0,0,64,112.12a33.68,33.68,0,0,0,16.7,4.1q15.12,0,25.35-12l15,13.82a46.63,46.63,0,0,1-17.85,13.39,59.17,59.17,0,0,1-23.76,4.61A57.93,57.93,0,0,1,51.52,129.4Z"/><path class="ebabf4ae-d1ee-423c-a1db-dffe7f6af512" d="M141.52,130.4a37.93,37.93,0,0,1-15.19-14.18,39.06,39.06,0,0,1-5.47-20.59A39,39,0,0,1,126.33,75a38,38,0,0,1,15.19-14.19,49.59,49.59,0,0,1,43.85,0A38.16,38.16,0,0,1,200.49,75,39,39,0,0,1,206,95.63a39.06,39.06,0,0,1-5.47,20.59,38.07,38.07,0,0,1-15.12,14.18,49.5,49.5,0,0,1-43.85,0Zm36.15-19.15q5.54-5.84,5.54-15.62T177.67,80a18.76,18.76,0,0,0-14.19-5.83A19,19,0,0,0,149.23,80q-5.62,5.84-5.62,15.63t5.62,15.62a18.91,18.91,0,0,0,14.25,5.83A18.72,18.72,0,0,0,177.67,111.25Z"/><path class="ebabf4ae-d1ee-423c-a1db-dffe7f6af512" d="M294.09,27.52V134.36H272.63v-8.92q-8.36,10.08-24.19,10.08a40.15,40.15,0,0,1-19.8-4.9,35.06,35.06,0,0,1-13.9-14,42.56,42.56,0,0,1-5-21,42.6,42.6,0,0,1,5-21,35.1,35.1,0,0,1,13.9-14,40.15,40.15,0,0,1,19.8-4.9q14.83,0,23.18,9.36V27.52Zm-27.65,83.73q5.61-5.84,5.62-15.62T266.44,80a18.79,18.79,0,0,0-14.11-5.83A19,19,0,0,0,238.07,80q-5.61,5.84-5.61,15.63t5.61,15.62a19,19,0,0,0,14.26,5.83A18.76,18.76,0,0,0,266.44,111.25Z"/><path class="ebabf4ae-d1ee-423c-a1db-dffe7f6af512" d="M384.52,102H325.91a18.23,18.23,0,0,0,7.49,11.38q5.89,4.18,14.69,4.18a29.7,29.7,0,0,0,10.72-1.8,26.07,26.07,0,0,0,8.72-5.69l12,13q-11,12.53-32,12.53a50.52,50.52,0,0,1-23.18-5.12,37.43,37.43,0,0,1-15.56-14.18,39.15,39.15,0,0,1-5.47-20.59,39.61,39.61,0,0,1,5.4-20.52,37.87,37.87,0,0,1,14.83-14.26,43.65,43.65,0,0,1,21.1-5.11,43.12,43.12,0,0,1,20.59,4.9,35.62,35.62,0,0,1,14.47,14A41.78,41.78,0,0,1,385,95.92C385,96.2,384.81,98.22,384.52,102ZM332,77.05a18.4,18.4,0,0,0-6.34,11.81h38.16a18.61,18.61,0,0,0-6.33-11.74,19,19,0,0,0-12.68-4.39A19.35,19.35,0,0,0,332,77.05Z"/><g id="16f38a5e-3e26-419c-aff3-24de9b05ff2d" data-name="Ed"><path class="5413bbb0-eec6-4289-b722-89e2734d395b" d="M547.5,27.52V134.36H526.05v-8.92q-8.35,10.08-24.19,10.08a40.15,40.15,0,0,1-19.8-4.9,35,35,0,0,1-13.9-14,42.56,42.56,0,0,1-5-21,42.6,42.6,0,0,1,5-21,35,35,0,0,1,13.9-14,40.15,40.15,0,0,1,19.8-4.9q14.82,0,23.18,9.36V27.52Zm-27.64,83.73q5.61-5.84,5.61-15.62T519.86,80a20.17,20.17,0,0,0-28.37,0q-5.62,5.84-5.62,15.63t5.62,15.62a20.17,20.17,0,0,0,28.37,0Z"/><g id="aed8db8d-0dd2-4dcf-98b7-9191cde416ec" data-name="E"><line class="e8ffcf43-10ed-4f8b-8b18-b90f85a447e8" x1="397.61" y1="124.35" x2="455.72" y2="124.35"/><line class="e8ffcf43-10ed-4f8b-8b18-b90f85a447e8" x1="397.61" y1="80.96" x2="447.49" y2="80.96"/><line class="e8ffcf43-10ed-4f8b-8b18-b90f85a447e8" x1="397.61" y1="37.52" x2="455.72" y2="37.52"/></g></g></g></g></svg>